<svg xmlns="http://www.w3.org/2000/svg" viewBox="0 0 1900.15 494.28"><path d="M427.39 0L131.23 174.33.06 261.06l4.67 1.6 1 .67 11.42-6.68c0 4.21 0 13.79-.1 26.5 0 17.31-.05 40.38-.07 63.46v17.22c0 5.68 0 11.27.08 16.68.16 10.82.28 20.91.49 29.57s.45 15.86.59 20.91.28 7.94.28 7.94h.75s.11-2.89.28-7.94.35-12.26.6-20.91c.17-6.84.28-14.6.39-22.89q0-3.29.1-6.68c0-5.41.09-11 .08-16.68s0-11.45 0-17.22c0-23.08 0-46.15-.07-63.46-.06-15.36-.1-26.16-.1-28.41l3.74-2.2 122.22-68.19 4.86-2.71 113.61-63.4v104.57-105.57h.07v323.83h-.07L18.72 448.6 0 449.17l264.89 29 104 .68-.08-23.64v-14.18l.77.25.77.26-1.29-.21v13.88l.08 23.54L417 493.7v.3l86.65.26h.18v-10.19h1.88l.16-.33-13.59-3.12v-9.11h2.18l.16-.34-14.95-3.64V459h3.66l.13-.25-3.79-.88v-.1h-.42l-10.46-2.42v-8.3l3.46.09.13-.27-3.58-.87h-.24l-11-2.67-88.77-2.23h-92.57V111l-10.76 5.87 153.89-87.75 114.28 139.32c0 3.89-.07 11.28-.14 21.18 0 5.34-.08 11.41-.12 18.07 0 12.7-.11 27.52-.16 43.4s-.05 32.82-.08 49.75v25.28c0 8.34 0 16.54.24 24.48s.41 15.61.61 22.89.41 14.16.71 20.51.6 12.18.85 17.34.56 9.66.76 13.36l.77 11.65h2l.77-11.65c.2-3.7.5-8.2.76-13.36s.58-11 .85-17.34.52-13.23.71-20.51.4-14.95.61-22.89.26-16.14.24-24.48 0-16.81 0-25.28c0-16.93 0-33.87-.08-49.75s-.11-30.7-.15-43.4c-.06-7.55-.1-14.34-.14-20.17l31.09-11.19zm74.4 484.4v8.6l-83.35-.25h-1.07v-9l9.77.07h.36zm-11.5-12.7v8.64H490l-63.68-.51h-.39l-20.73-.17v-9l10.64.12h.44zm-12.61-12.53v7.52l-67.17-.2h-7.15l-10.36-.15v-8.58l10.53.18h.32zm-91.63-13.85h.26l71 1.48 9.52.19v7.87h-9.14l-57.52-1h-.41l-19.11-.33v-8.31zm70.26-187.89l39.58 5.81v-82l4.19-4.31-48.2-9.76 4.43 6.19v84zm0-43l19 3.31v-40.55l2 .4v40.48l18.54 3.22v1.93L477.34 220v40.49l-2-.29v-40.52l-19-3.28zm2.35 193.12l39.47 2.1v-81.86l-39.47-4.17zm0-43l19 1.52v-40.43l2 .2v40.43l18.5 1.48v1.93l-18.5-1.46v40.43l-2-.11v-40.48l-19-1.49zm39.46-36.8l-39.47-4.17-4.41-5.76 48.05 5.23zM319.68 216v21l46.51 6.84v-88.73l4.91-4.59L314.46 139l5.22 6.8 19.15 3.82-19.15-3.82zm0-25.68l22.39 3.9v-43.91l2.33.47v43.88l21.77 3.78v2.09l-21.77-3.76v43.89l-2.33-.34v-43.95l-22.39-3.86zm.68 210l46.47 2.47v-88.72l-46.47-4.91zm0-46.65l22.38 1.79v-43.93l2.32.25v43.87l21.75 1.74v2.08l-21.75-1.71v43.87l-2.32-.13v-43.92l-22.38-1.77zm46.46-39.6l-46.47-4.91-5.21-6.3 56.61 6.14zM208 229.83v21.74l26.59-10.2v-90.5L208 164.74zm0-22.69l12.35-5.62V158.3l1.33-.69v43.31l12.9-5.86v2.13L221.7 203v43.3l-1.33.52v-43.21L208 209.18zm26.58-56.27L208 164.74l-2.76-4 32.38-17.18zm-76.19 39.75l-20.86 10.89v77.11l20.86-8v-80zm0 40.94l-10.1 4.55v38.37l-1 .4v-38.3l-2.3 1-7.44 3.42v-1.82l1.87-.84 7.85-3.57v-38.3l1-.54v38.36l10.1-4.59zm-23-33.75l25.42-13.48-2.37 6.29-20.86 10.89zm-53.27 32.62v69.46L99 293.41v-71.79l1.91-5.53L80.35 227zm0 33.91l7.88-3.58v-34.44l.84-.44v34.5l8.16-3.71v1.69L90.84 262v34.49l-.84.33v-34.4L82.12 266zm-32.78-16.81L44.56 250l-9.07 4.74v63l13.85-5.32v-64.89zm0 33.23l-6.68 3V315l-.69.27v-31.2L35.5 287v-1.49l6.5-2.93v-31.2l.69-.36v31.25l6.68-3zm-14.72-29.51l16.28-8.63-1.56 4.91-4.78 2.47-9.07 4.74-1.49-3.18zm172.75 155.86l26.53-3.62v-90.41l-26.53 7.29zm0-44.39l12.33-2.56V317l1.32-.36v43.26l12.88-2.67v2.13L221 362v43.26l-1.32.18v-43.19l-12.33 2.51zm-2.76-47l32.31-9.16-3 6.55-26.53 7.29zm-45.91 98.04v-80l2.36-5.71-25.44 7.21 2.19 4.24v77.14zm-20.89-36.62l9.73-2v-38.33l1-.29v38.39l10.11-2.1v1.88l-10.11 2.07v38.38l-1 .14V377l-9.73 2zm-55.48 47.07l16.89-2.33v-71.81l-16.89 4.64zm0-35.57l7.89-1.64v-34.45l.84-.23v34.51l8.16-1.69v1.69l-8.16 1.66V423l-.84.13v-34.46l-7.88 1.6zm16.88-38.57l-16.89 4.64-1.77-3.87 20.58-5.84zM49.53 397v-1.53l-6.69 1.39v-31.29l-.69.19V397l-6.48 1.34v1.48l6.48-1.32v31.21l-6.48.88v-63l13.86-3.8v64.95l-6.69.9v-31.31zm0-33.25l-13.86 3.81-1.46-3.56 16.88-4.78zm341.33 75.81l45.76 1.44V335.23l-45.76-4.44zm11.43-99.21l22.14 2v40.16L402.29 381zm0 50.91l22.14 1.36v40.16l-22.14-.82zm34.33-56l-45.76-4.44-5.14-7.37 55.73 5.64zm258.92-96q-1.6 3-1.6 11.68v33.22a81.16 81.16 0 01-18.17 7.28 79.34 79.34 0 01-19.92 2.32q-31.46 0-47.79-20.17a53.86 53.86 0 01-12.24-34.89 61.19 61.19 0 0129.29-51.47q11.92-7 28.17-7a55.58 55.58 0 0110.77 1 99.12 99.12 0 0113.72 4.24 22.14 22.14 0 006 1.68 3.19 3.19 0 002.6-1.4q1.08-1.4 1.32-5.48h3l2.8 34.26h-2.8q-4.24-12.81-11-19.29-9.69-9.36-24.9-9.37-20.73 0-31.53 16.41-9 13.85-9 33a66 66 0 006 28.33q6 12.81 15.73 18.77a37.76 37.76 0 0020 6 44.26 44.26 0 0011.6-1.52 46.2 46.2 0 0010.8-4.48v-31.51q0-8.16-1.24-10.68a8.31 8.31 0 00-3.84-3.84c-1.73-.88-4.79-1.32-9.16-1.32V232h42v3h-2q-6.29 0-8.61 4.19zm58.09 49.06h-4.24q-6.09 0-9.12-3.52Q738 282.24 738 272v-31.53l2.48.12h2.24c1.7 0 3.92 0 6.64-.16l36.74 50.74h110.62l9.37-27.17h-3.2q-5.21 10-10.17 15a20.1 20.1 0 01-8 5q-4.17 1.28-13.37 1.28h-18.41q-4.47 0-6.08-.92a5.06 5.06 0 01-2.24-2.48c-.43-1-.64-4-.64-8.77v-35.76h23.85q6.81 0 10.09 1.6a10 10 0 014.72 4.4q1.11 2.24 2.24 10.16h3v-37.77h-3q-.48 9.28-4.64 13-3.12 2.81-12.41 2.8H844V188.6h29.77q8.09 0 11.29 1.21a12.72 12.72 0 016 4.88q2 3.19 3.72 11.76h3.12l-1.2-23.77h-83.61v3h3.84q6.72 0 9.6 3.21 2.09 2.4 2.08 12.72v70.51c0 5.28-.3 8.78-.92 10.49a6.72 6.72 0 01-3.48 3.84 15.17 15.17 0 01-7.28 1.84h-1.83q-8.88-1-14.41-4.48t-13.2-14.25l-22.41-31.13q13.68-3 20.21-10.41a25.37 25.37 0 006.52-17.37 24.17 24.17 0 00-5.72-16.12 29.19 29.19 0 00-13.93-9.29q-8.2-2.52-25.49-2.52h-39.54v3h4.08q6.16 0 9.29 3.53 2.24 2.47 2.24 12.72V272q0 9.28-1.68 11.77-3 4.49-9.85 4.48h-4.08v3h46.5zm-15.6-98a70 70 0 0112.56-1.52q10.49 0 16.85 6.36t6.36 16.53a21.52 21.52 0 01-7.88 17.12q-7.89 6.72-23.41 6.73h-4.48zm254.88 100.89h-83.63v-3h3.84a15.17 15.17 0 007.28-1.84 6.72 6.72 0 003.48-3.84c.62-1.71.92-5.21.92-10.49v-70.47q0-10.32-2.08-12.72-2.88-3.21-9.6-3.21h-3.84v-3h83.63l1.2 23.77H991q-1.68-8.56-3.72-11.76a12.72 12.72 0 00-6-4.88q-3.21-1.2-11.29-1.21h-29.82v42.9H964q9.29 0 12.41-2.8 4.16-3.67 4.64-13h3v37.77h-3q-1.12-7.92-2.24-10.16a10 10 0 00-4.72-4.4q-3.29-1.6-10.09-1.6h-23.83v35.77c0 4.8.21 7.73.64 8.77a5.06 5.06 0 002.24 2.48q1.61.92 6.08.92h18.41q9.21 0 13.37-1.28a20.1 20.1 0 008-5q5-5 10.17-15h3.2zM1007 186.36a25.58 25.58 0 00-7-.72v-3h29.46l66.35 81.4v-62.55q0-10-2.24-12.48-3-3.37-9.37-3.37h-3.76v-3h37.78v3h-3.84q-6.88 0-9.77 4.17-1.75 2.55-1.76 11.68V293h-2.88l-71.55-87.4v66.8q0 10 2.16 12.49 3 3.36 9.36 3.36h3.84v3H1006v-3h3.76q7 0 9.84-4.16 1.77-2.56 1.76-11.69v-75.47a48.77 48.77 0 00-7.16-7.28 26.27 26.27 0 00-7.2-3.29zm196.39 104.85h-83.64v-3h3.84a15.21 15.21 0 007.29-1.84 6.79 6.79 0 003.48-3.84q.92-2.56.92-10.49v-70.47q0-10.32-2.08-12.72-2.88-3.21-9.61-3.21h-3.84v-3h83.64l1.2 23.77h-3.12q-1.68-8.56-3.72-11.76a12.75 12.75 0 00-6-4.88q-3.2-1.2-11.28-1.21h-29.77v42.9h23.85q9.29 0 12.4-2.8 4.17-3.67 4.64-13h3v37.77h-3q-1.11-7.92-2.24-10.16a10 10 0 00-4.72-4.4q-3.28-1.6-10.08-1.6h-23.85v35.77c0 4.8.21 7.73.64 8.77a5 5 0 002.24 2.48q1.59.92 6.08.92H1178q9.2 0 13.36-1.28a20.06 20.06 0 008-5q5-5 10.16-15h3.2zm57.21-30.73h-41.38v-12.09h41.38zm106.87-53.87q-7.73-12.88-20.41-18.4t-37-5.53h-44.18v3h4.08q6.16 0 9.28 3.53c1.5 1.7 2.25 6 2.25 12.72V272q0 9.21-1.77 11.85-2.88 4.39-9.76 4.4h-4.08v3h48.5q31.62 0 47.06-17 13.77-15.19 13.77-37.85-.02-16.9-7.75-29.79zm-22.77 65.95q-12.24 13.05-30.81 13.05a82 82 0 01-17.05-2.24v-92.28a67.89 67.89 0 0116.41-2.32q19.21 0 31.45 13t12.25 35.46q-.01 22.28-12.26 35.33zm81.94 15.69h-4.24c-4.05 0-7.1-1.17-9.12-3.52Q1411 282.24 1411 272v-31.53l2.48.12h2.24q2.57 0 6.64-.16l36.74 50.74h110.59l9.37-27.21h-3.2q-5.21 10-10.17 15a20.1 20.1 0 01-8 5q-4.17 1.28-13.37 1.28h-18.41q-4.47 0-6.08-.92a5.06 5.06 0 01-2.24-2.48c-.43-1-.64-4-.64-8.77v-35.72h23.85q6.81 0 10.09 1.6a10 10 0 014.72 4.4q1.11 2.24 2.24 10.16h3v-37.77h-3q-.48 9.28-4.64 13-3.12 2.81-12.41 2.8H1517V188.6h29.77q8.09 0 11.29 1.21a12.72 12.72 0 016 4.88q2 3.19 3.72 11.76h3.12l-1.2-23.77h-83.63v3h3.84q6.72 0 9.6 3.21 2.09 2.4 2.08 12.72v70.51c0 5.28-.3 8.78-.92 10.49a6.72 6.72 0 01-3.48 3.84 15.17 15.17 0 01-7.28 1.84h-1.83q-8.88-1-14.41-4.48t-13.2-14.25l-22.41-31.13q13.68-3 20.21-10.41a25.32 25.32 0 006.52-17.37 24.17 24.17 0 00-5.72-16.12 29.19 29.19 0 00-13.93-9.29q-8.21-2.52-25.49-2.52h-39.54v3h4.08q6.16 0 9.29 3.53 2.24 2.47 2.24 12.72V272q0 9.28-1.68 11.77-3 4.49-9.85 4.48h-4.08v3h46.5zm-15.6-98a70 70 0 0112.56-1.52q10.48 0 16.85 6.36t6.36 16.53a21.52 21.52 0 01-7.88 17.12q-7.89 6.72-23.41 6.73h-4.48zm217.19 100.92h-46.5v-3h3.84q6.72 0 9.76-3.92 1.92-2.56 1.92-12.33V202q0-8.33-1-11a7.2 7.2 0 00-3.28-3.45 15.17 15.17 0 00-7.36-1.92h-3.84v-3h46.5v3h-3.92a15.32 15.32 0 00-7.29 1.84 7 7 0 00-3.44 3.89c-.64 1.73-1 5.27-1 10.6V233H1663v-31q0-8.33-1-11a7.12 7.12 0 00-3.36-3.45 14.71 14.71 0 00-7.28-1.92h-3.84v-3h46.42v3h-3.85a15.31 15.31 0 00-7.28 1.84 6.72 6.72 0 00-3.48 3.89c-.61 1.73-.92 5.27-.92 10.6v70q0 8.25 1 10.89a7.22 7.22 0 003.28 3.44 15.17 15.17 0 007.36 1.92h3.85v3h-46.42v-3h3.84q6.64 0 9.68-3.92 2-2.56 2-12.33V239h-50.42v33q0 8.25 1 10.89a7.15 7.15 0 003.36 3.44 14.74 14.74 0 007.29 1.92h3.92zm152 0h-83.64v-3h3.84a15.24 15.24 0 007.29-1.84 6.79 6.79 0 003.48-3.84q.91-2.56.92-10.49v-70.43q0-10.32-2.08-12.72-2.88-3.21-9.61-3.21h-3.84v-3h83.64l1.2 23.77h-3.12q-1.68-8.56-3.72-11.76a12.75 12.75 0 00-6-4.88q-3.2-1.2-11.28-1.21h-29.78v42.9h23.86q9.27 0 12.4-2.8 4.17-3.67 4.64-13h3v37.77h-3q-1.11-7.92-2.24-10.16a10 10 0 00-4.72-4.4q-3.29-1.6-10.08-1.6h-23.86v35.77c0 4.8.22 7.73.65 8.77a5 5 0 002.24 2.48q1.59.92 6.08.92h18.41q9.2 0 13.36-1.28a20.06 20.06 0 008-5q4.95-5 10.16-15h3.2zm105.55-7.44q-5.52-3.52-13.2-14.25l-22.41-31.13q13.68-3 20.21-10.41a25.37 25.37 0 006.52-17.37 24.17 24.17 0 00-5.72-16.12 29.19 29.19 0 00-13.93-9.29q-8.2-2.52-25.49-2.52h-39.54v3h4.08q6.16 0 9.29 3.53 2.23 2.47 2.24 12.72V272q0 9.28-1.68 11.77-3 4.49-9.85 4.48h-4.08v3h46.5v-3h-4.24q-6.09 0-9.12-3.52-2.25-2.49-2.24-12.73v-31.53l2.48.12h2.24c1.7 0 3.92 0 6.64-.16l36.74 50.74h29v-3q-8.95-.88-14.48-4.4zm-58.18-48.26h-4.48v-45.18a70 70 0 0112.56-1.52q10.48 0 16.85 6.36t6.36 16.53a21.52 21.52 0 01-7.88 17.12q-7.93 6.72-23.45 6.73zM656.77 352.39h36.9v2.35h-3a12.14 12.14 0 00-5.79 1.46 5.32 5.32 0 00-2.77 3.09q-.73 2.07-.73 8.43v55.68q0 6.56.82 8.65a5.82 5.82 0 002.61 2.74 12.05 12.05 0 005.86 1.52h3v2.36h-36.9v-2.36h3.05q5.28 0 7.7-3.11 1.59-2 1.59-9.8v-26.28H629v26.28q0 6.56.83 8.65a5.7 5.7 0 002.67 2.74 11.71 11.71 0 005.79 1.52h3.12v2.36h-37v-2.36h3.06q5.34 0 7.76-3.11 1.53-2 1.53-9.8v-55.68q0-6.62-.83-8.72a5.76 5.76 0 00-2.61-2.73 12.05 12.05 0 00-5.85-1.53h-3.06v-2.35h37v2.35h-3.12a12.2 12.2 0 00-5.79 1.46 5.53 5.53 0 00-2.73 3.09q-.76 2.07-.77 8.43v24.69h40.09v-24.69q0-6.62-.83-8.72a5.64 5.64 0 00-2.67-2.73 11.66 11.66 0 00-5.79-1.53h-3.05zm39.56 0h37v2.35h-3.12q-5.28 0-7.7 3.12c-1.06 1.36-1.59 4.62-1.59 9.8v55.74q0 6.56.83 8.65a5.7 5.7 0 002.67 2.74 11.65 11.65 0 005.79 1.52h3.12v2.36h-37v-2.36h3c3.57 0 6.15-1 7.77-3.11 1-1.36 1.52-4.63 1.52-9.8v-55.74q0-6.56-.82-8.66a5.76 5.76 0 00-2.61-2.73 12.06 12.06 0 00-5.86-1.53h-3zm100 54.4a21.57 21.57 0 012.39 9.86 22.34 22.34 0 01-7.61 16.9q-7.61 7.09-19.56 7.09a41.67 41.67 0 01-7.07-.57 72.8 72.8 0 01-8.17-2.32q-6.21-2-7.86-2a3.31 3.31 0 00-2.51 1c-.62.63-1.08 1.95-1.37 3.94h-2.36v-29.64h2.36q1.65 9.3 4.45 13.91a21.4 21.4 0 008.56 7.66 26.5 26.5 0 0012.63 3.06q7.95 0 12.57-4.2a13 13 0 004.61-9.93 13.39 13.39 0 00-1.75-6.42 19.18 19.18 0 00-5.44-6.05q-2.48-1.9-13.55-8.11a132.24 132.24 0 01-15.75-9.9 26.76 26.76 0 01-7.1-8.14 20.24 20.24 0 01-2.41-9.8 21.23 21.23 0 017.12-16q7.13-6.72 18.14-6.72a36.36 36.36 0 0114.57 3.38 14.94 14.94 0 005 1.59 3.78 3.78 0 002.7-1 7.92 7.92 0 001.69-4H793v29.85h-2.35q-1.15-8.6-4.11-13.68a21.25 21.25 0 00-8.43-8.08 23.25 23.25 0 00-11.33-3 15.36 15.36 0 00-10.94 4 12.29 12.29 0 00-4.33 9.19 10.91 10.91 0 002.74 7.19q3.94 4.77 18.77 12.73 12.09 6.48 16.51 9.95a24.34 24.34 0 016.78 8.26zm81.53-54.4l.95 20.23h-2.41a24.62 24.62 0 00-1.91-7.63 12.79 12.79 0 00-5.25-5.44 18.28 18.28 0 00-8.62-1.75h-12.18v65.92q0 7.95 1.72 9.92 2.42 2.67 7.44 2.67h3v2.36H824v-2.36h3q5.48 0 7.77-3.3 1.39-2 1.4-9.29V357.8h-10.32c-4 0-6.89.29-8.59.89a11.77 11.77 0 00-5.66 4.64 18.84 18.84 0 00-2.8 9.29h-2.42l1-20.23zm46.25-2A41.32 41.32 0 00895 361.68q-14 13-14 33.53 0 20.1 12.12 32.77a41.48 41.48 0 0060-.32q12.4-13 12.41-32.64 0-19.09-12.32-31.85t-29.12-12.76zM943 426.64a25 25 0 01-20 9.48 22.33 22.33 0 01-18.33-8.65q-9-11.39-9-32.51 0-20.62 8.71-31.31 7-8.59 18.58-8.59 12.35 0 19.35 8.65 8.71 10.89 8.71 33-.08 20.45-8.02 29.93zm111.3-71.9h3a12.06 12.06 0 015.86 1.53 5.76 5.76 0 012.61 2.73q.83 2.1.82 8.66v55.74q0 7.75-1.52 9.8c-1.62 2.07-4.2 3.11-7.77 3.11h-2a26.32 26.32 0 01-11.46-3.56q-4.38-2.79-10.49-11.32l-17.82-24.76q10.87-2.42 16.07-8.27a20.16 20.16 0 005.18-13.81 19.23 19.23 0 00-4.55-12.82 23.21 23.21 0 00-11.07-7.38q-6.53-2-20.27-2h-31.38v2.35h3.25c3.26 0 5.72.94 7.38 2.8 1.18 1.32 1.78 4.69 1.78 10.12v55.74q0 7.38-1.34 9.35c-1.57 2.38-4.18 3.56-7.82 3.56h-3.25v2.36h37v-2.36h-3.37c-3.23 0-5.64-.93-7.26-2.8-1.18-1.31-1.78-4.68-1.78-10.11v-25.07l2 .09h1.78q2 0 5.28-.12l29.2 40.34h59v-2.36h-3.12a11.65 11.65 0 01-5.79-1.52 5.7 5.7 0 01-2.67-2.74q-.82-2.1-.83-8.65v-55.71c0-5.18.53-8.44 1.59-9.8q2.41-3.12 7.7-3.12h3.12v-2.35h-37zm-56.68 39.64h-3.57v-35.95a56.75 56.75 0 0110-1.21q8.34 0 13.4 5.06t5.06 13.14a17.11 17.11 0 01-6.27 13.62q-6.24 5.34-18.6 5.34zm174 22.78l2 1.27q-6.48 11.52-15.14 16.87t-20.55 5.34q-21.45 0-33.22-15.91-8.78-11.84-8.78-27.87a49.48 49.48 0 015.79-23.73 41.91 41.91 0 0115.94-16.77 43.14 43.14 0 0122.17-5.95 40.61 40.61 0 0118.46 4.59 10 10 0 003.82 1.4 4.24 4.24 0 003-1.21 10 10 0 002.35-4.78h2.23l2 29.34h-2q-3.95-13.17-11.27-19a27.41 27.41 0 00-17.56-5.79 28.61 28.61 0 00-15.52 4.35q-6.94 4.36-10.91 13.91t-4 23.73q0 11.72 3.75 20.3a28.12 28.12 0 0011.3 13.17 32.49 32.49 0 0017.21 4.58 29.89 29.89 0 0014.82-3.59q6.44-3.56 14.13-14.25zm81.18 5l-30-71.78h-2.23l-30.35 71q-3.95 9.35-7.19 12.4-1.59 1.53-7 2.48v2.36h27.17v-2.36q-6.24-.44-8.11-1.94a4.35 4.35 0 01-1.88-3.46q0-2.49 2.16-7.51l5.86-13.62h33.4l5.22 12.41q2.55 6 2.55 8.84a4.45 4.45 0 01-1.82 3.57q-1.82 1.45-7 1.71v2.36h34.05v-2.36q-5.28-.31-8.24-2.89t-6.57-11.18zm-49.63-17.12l15-34.87 14.63 34.87zm137.36 9.74l2.1.44-7.38 23.42h-66.81v-2.36h3.25c3.64 0 6.25-1.18 7.82-3.56.89-1.36 1.34-4.49 1.34-9.42v-55.64c0-5.39-.6-8.76-1.78-10.12-1.66-1.86-4.12-2.8-7.38-2.8h-3.25v-2.35h39.07v2.35c-4.58 0-7.8.38-9.64 1.27a7.77 7.77 0 00-3.79 3.38c-.68 1.35-1 4.6-1 9.73v54.21c0 3.52.33 5.94 1 7.26a4.55 4.55 0 002.36 2c1.06.42 4.37.64 9.92.64h6.3q9.93 0 13.94-1.47a18.14 18.14 0 007.32-5.18q3.32-3.75 6.63-11.77zm89.23-8a21.57 21.57 0 012.39 9.86 22.34 22.34 0 01-7.61 16.9q-7.59 7.09-19.56 7.09a41.55 41.55 0 01-7.06-.57 72.75 72.75 0 01-8.18-2.32q-6.21-2-7.86-2a3.31 3.31 0 00-2.51 1c-.62.63-1.07 1.95-1.37 3.94h-2.35v-29.63h2.35q1.65 9.3 4.45 13.91a21.4 21.4 0 008.56 7.66 26.5 26.5 0 0012.63 3.06q8 0 12.57-4.2a13 13 0 004.61-9.93 13.39 13.39 0 00-1.75-6.42 19.06 19.06 0 00-5.44-6.05q-2.48-1.9-13.55-8.11a132.24 132.24 0 01-15.75-9.9 26.59 26.59 0 01-7.09-8.14 20.13 20.13 0 01-2.42-9.8 21.2 21.2 0 017.13-16q7.13-6.72 18.13-6.72a36.36 36.36 0 0114.57 3.38 15 15 0 005 1.59 3.78 3.78 0 002.7-1 7.92 7.92 0 001.69-4h2.35v29.85h-2.35c-.77-5.73-2.13-10.29-4.11-13.68a21.25 21.25 0 00-8.43-8.08 23.24 23.24 0 00-11.32-3 15.39 15.39 0 00-11 4 12.28 12.28 0 00-4.32 9.19 10.9 10.9 0 002.73 7.19q3.94 4.77 18.77 12.73 12.09 6.48 16.51 9.95a24.34 24.34 0 016.91 8.26zm53.79-56.38a41.28 41.28 0 00-29.08 11.27q-14 13-14 33.53 0 20.1 12.12 32.77a41.48 41.48 0 0060-.32q12.4-13 12.41-32.64 0-19.09-12.31-31.85t-29.12-12.75zm18.93 76.23a25.05 25.05 0 01-20.08 9.48 22.31 22.31 0 01-18.32-8.65q-9-11.39-9-32.51 0-20.62 8.72-31.31 7-8.59 18.58-8.59 12.35 0 19.34 8.65 8.71 10.89 8.72 33-.02 20.46-7.94 29.94zm104.69-9.48l2 1.27q-6.5 11.58-15.17 16.88t-20.56 5.34q-21.43 0-33.21-15.91-8.77-11.84-8.78-27.87a49.48 49.48 0 015.79-23.73 41.91 41.91 0 0115.94-16.77 43.09 43.09 0 0122.17-5.95 40.54 40.54 0 0118.45 4.59 10.15 10.15 0 003.82 1.4 4.22 4.22 0 003-1.21 9.92 9.92 0 002.36-4.78h2.22l2 29.34h-2q-3.95-13.17-11.26-19a27.43 27.43 0 00-17.56-5.79 28.64 28.64 0 00-15.53 4.35q-6.93 4.36-10.91 13.91T1546 397q0 11.72 3.75 20.3a28.1 28.1 0 0011.25 13.16 32.55 32.55 0 0017.22 4.58 29.92 29.92 0 0014.82-3.59q6.46-3.6 14.15-14.29zm6.6-64.77h37v2.35h-3.11c-3.53 0-6.09 1-7.7 3.12-1.06 1.36-1.6 4.62-1.6 9.8v55.75q0 6.56.83 8.65a5.79 5.79 0 002.67 2.74 11.72 11.72 0 005.8 1.52h3.11v2.36h-37v-2.36h3.06q5.34 0 7.76-3.11 1.53-2 1.53-9.8v-55.74q0-6.56-.83-8.66a5.67 5.67 0 00-2.61-2.73 12 12 0 00-5.85-1.53h-3.06zm111 64.64h2.55l-7.45 21.64h-66.49v-2.36h3.05a12 12 0 005.79-1.46 5.37 5.37 0 002.77-3.05q.73-2 .73-8.34V367.4q0-8.2-1.65-10.11c-1.53-1.7-4.07-2.55-7.64-2.55h-3.05v-2.35h66.49l1 18.89h-2.49q-1.33-6.79-3-9.35a10.25 10.25 0 00-4.81-3.88c-1.7-.64-4.69-.95-9-.95h-23.67v34.1h19q7.38 0 9.86-2.23 3.32-2.93 3.7-10.3h2.35v30h-2.35c-.6-4.2-1.19-6.89-1.79-8.08a7.92 7.92 0 00-3.75-3.5q-2.61-1.28-8-1.27h-19v28.44q0 5.73.51 7a4 4 0 001.78 2c.85.49 2.46.73 4.84.73h14.63q7.32 0 10.63-1a15.85 15.85 0 006.36-4q3.94-3.99 8.08-11.99zm77.81-64.64l1 20.23h-2.42a24.62 24.62 0 00-1.91-7.63 12.79 12.79 0 00-5.25-5.44 18.28 18.28 0 00-8.62-1.75h-12.16v65.92c0 5.3.58 8.61 1.72 9.92 1.61 1.78 4.1 2.67 7.45 2.67h3v2.36h-36.59v-2.36h3q5.48 0 7.77-3.3 1.4-2 1.4-9.29V357.8h-10.37c-4 0-6.9.29-8.6.89a11.77 11.77 0 00-5.66 4.64 18.84 18.84 0 00-2.8 9.29h-2.42l1-20.23zm63.17 0h30.1v2.35h-1.65a13 13 0 00-4.84 1.46 19 19 0 00-5.79 4.2 58 58 0 00-6.43 8.91l-20.8 32.77v21.64q0 7.95 1.78 9.92c1.61 1.78 4.16 2.67 7.63 2.67h2.8v2.36h-36.65v-2.36h3.06c3.65 0 6.23-1.1 7.76-3.3q1.4-2 1.4-9.29v-20.42l-23.67-36.14a77.6 77.6 0 00-5.69-7.95c-1-1.06-3.07-2.34-6.21-3.82a8.4 8.4 0 00-3.69-.64v-2.35h36.91v2.35h-1.91a11.17 11.17 0 00-5.51 1.4 4.53 4.53 0 00-2.51 4.2q0 2.3 3.88 8.27l18 27.81 16.92-26.6q3.82-6 3.82-8.91a5.72 5.72 0 00-.92-3.18 6.24 6.24 0 00-2.64-2.19 12.86 12.86 0 00-5.16-.8z" fill="#fff"/></svg>