<svg xmlns="http://www.w3.org/2000/svg" xmlns:xlink="http://www.w3.org/1999/xlink" viewBox="0 0 20 20"><defs><mask id="a" x="0" y="1.5" width="20" height="16.25" maskUnits="userSpaceOnUse"><polygon points="0 9.63 0 17.75 20 17.75 20 9.63 20 1.5 0 1.5 0 9.63" fill="#fff"/></mask></defs><title>o-icon--twitter</title><g mask="url(#a)"><path d="M20,3.42a8.2,8.2,0,0,1-2.36.65,4.12,4.12,0,0,0,1.8-2.27,8.22,8.22,0,0,1-2.61,1,4.11,4.11,0,0,0-7,3.74A11.65,11.65,0,0,1,1.39,2.25,4.11,4.11,0,0,0,2.66,7.73,4.09,4.09,0,0,1,.8,7.22v.05a4.11,4.11,0,0,0,3.29,4,4.11,4.11,0,0,1-1.85.07,4.11,4.11,0,0,0,3.83,2.85A8.23,8.23,0,0,1,1,16a8.32,8.32,0,0,1-1-.06,11.61,11.61,0,0,0,6.29,1.84A11.6,11.6,0,0,0,18,6.08q0-.27,0-.53a8.34,8.34,0,0,0,2-2.12" fill="#24374d"/></g></svg>