<svg xmlns="http://www.w3.org/2000/svg" viewBox="0 0 51.43 60"><path d="M51.35 21.67v-1.06l-1.08-.14a24.1 24.1 0 00-16.69 4.94 11.17 11.17 0 00-3.1 14.89l-3.16 3.26v-15.7c2.37-1.51 7.12-5.36 7-12-.24-8.33-6.98-14.79-7.27-15.07L26.21 0l-.85.79c-.29.27-7.15 6.79-7.35 15.1-.16 6.56 4.51 10.42 6.84 11.93v15.93l-3.51-3.47a11.13 11.13 0 00-3.47-14.23 23.84 23.84 0 00-16.59-4.94h-1L.1 22.2A24.73 24.73 0 005 39.05a11 11 0 008.91 4.75 11.5 11.5 0 005.83-1.62l5.12 5.07v11.5a1.24 1.24 0 102.47 0V47.13l5-5.2a11.51 11.51 0 005.17 1.25 11 11 0 008.92-4.75 24.89 24.89 0 004.93-16.76zm-31.9 16.74l-1.61-1.59v-4.88a1.24 1.24 0 10-2.47 0v2.43l-1.5-1.48v-5a1.24 1.24 0 10-2.47 0v2.52l-4.19-4.1a1.23 1.23 0 00-1.75 0 1.26 1.26 0 000 1.77L9.42 32h-2a1.25 1.25 0 000 2.5H12l1.48 1.5h-2.13a1.25 1.25 0 000 2.5H16l1.88 1.85c-1.69.83-6.77 2.64-10.94-2.83a22.59 22.59 0 01-4.45-14A21.92 21.92 0 0116.37 28c4.76 3.74 3.99 8.1 3.08 10.41zm6.64-28.23a1.24 1.24 0 00-1.24 1.25v13.31a11 11 0 01-4.37-8.79c.14-5.62 4-10.5 5.72-12.44 1.72 1.93 5.47 6.78 5.61 12.4a11 11 0 01-4.48 8.88V11.43a1.24 1.24 0 00-1.24-1.25zm18.4 26.72c-3.67 4.81-8 4-10.27 3.12l1.57-1.63h4.83a1.25 1.25 0 000-2.5h-2.4l1.46-1.51h4.91a1.25 1.25 0 000-2.5H42.1l4.1-4.23a1.26 1.26 0 000-1.77 1.23 1.23 0 00-1.75 0l-3.86 4v-2.05a1.24 1.24 0 10-2.47 0v4.62L36.6 34v-2.16a1.24 1.24 0 10-2.47 0v4.7l-1.84 1.89c-.82-1.71-2.62-6.83 2.8-11a22.05 22.05 0 0113.85-4.5 22.53 22.53 0 01-4.45 13.97z" fill="#8d9b86"/></svg>