<svg xmlns="http://www.w3.org/2000/svg" viewBox="0 0 20 20"><title>o-icon--twitter</title><path d="M19.44,1.8a8.21,8.21,0,0,1-2.61,1,4.11,4.11,0,0,0-7,3.74A11.66,11.66,0,0,1,1.39,2.25,4.11,4.11,0,0,0,2.66,7.73,4.05,4.05,0,0,1,.8,7.22v0a4.12,4.12,0,0,0,3.29,4,4.13,4.13,0,0,1-1.85.07,4.12,4.12,0,0,0,3.83,2.85A8.26,8.26,0,0,1,1,16a8.39,8.39,0,0,1-1-.06,11.69,11.69,0,0,0,6.29,1.84A11.6,11.6,0,0,0,18,6.29V5.55a8.24,8.24,0,0,0,2-2.12h0a8.45,8.45,0,0,1-2.36.65A4.15,4.15,0,0,0,19.44,1.8Z" fill="#24374d"/></svg>