<svg xmlns="http://www.w3.org/2000/svg" viewBox="0 0 20 20"><title>o-icon--instagram</title><path d="M19.67,6a7.14,7.14,0,0,0-.45-2.36,4.77,4.77,0,0,0-1.12-1.72A4.77,4.77,0,0,0,16.37.78,7.14,7.14,0,0,0,14,.33c-1,0-1.37-.06-4-.06s-3,0-4,.06A7.14,7.14,0,0,0,3.63.78,4.77,4.77,0,0,0,1.91,1.91,4.77,4.77,0,0,0,.78,3.63,7.14,7.14,0,0,0,.33,6c0,1-.06,1.37-.06,4s0,3,.06,4a7.14,7.14,0,0,0,.45,2.36,4.77,4.77,0,0,0,1.12,1.72,4.77,4.77,0,0,0,1.72,1.12A7.14,7.14,0,0,0,6,19.67c1,0,1.37.06,4,.06s3,0,4-.06a7.14,7.14,0,0,0,2.36-.45,5,5,0,0,0,2.84-2.84A7.14,7.14,0,0,0,19.67,14c0-1,.06-1.37.06-4S19.72,7,19.67,6Zm-1.75,7.94a5.38,5.38,0,0,1-.33,1.81,3.22,3.22,0,0,1-1.85,1.85,5.38,5.38,0,0,1-1.81.33c-1,0-1.33.06-3.93.06s-2.91,0-3.93-.06a5.38,5.38,0,0,1-1.81-.33,3,3,0,0,1-1.12-.73,3,3,0,0,1-.73-1.12,5.38,5.38,0,0,1-.33-1.81C2,12.9,2,12.6,2,10s0-2.9.06-3.93a5.38,5.38,0,0,1,.33-1.81,3,3,0,0,1,.73-1.12,3,3,0,0,1,1.12-.73,5.38,5.38,0,0,1,1.81-.33C7.1,2,7.4,2,10,2s2.9,0,3.93.06a5.38,5.38,0,0,1,1.81.33,3,3,0,0,1,1.12.73,3,3,0,0,1,.73,1.12,5.38,5.38,0,0,1,.33,1.81C18,7.1,18,7.4,18,10S18,12.9,17.92,13.93Z" fill="#24374d"/><path d="M10,5a5,5,0,1,0,5,5A5,5,0,0,0,10,5Zm0,8.24A3.24,3.24,0,1,1,13.24,10,3.24,3.24,0,0,1,10,13.24Z" fill="#24374d"/><circle cx="15.19" cy="4.81" r="1.17" fill="#24374d"/></svg>