<svg width="24" height="16" fill="none" xmlns="http://www.w3.org/2000/svg"><path fill-rule="evenodd" clip-rule="evenodd" d="M3.688.246a3.715 3.715 0 00-3.483 3.44C.097 5.074 0 6.682 0 8s.097 2.926.205 4.314a3.715 3.715 0 003.483 3.44C5.685 15.878 8.537 16 12 16c3.463 0 6.315-.122 8.312-.246a3.715 3.715 0 003.483-3.44C23.903 10.926 24 9.318 24 8s-.096-2.926-.205-4.314a3.715 3.715 0 00-3.483-3.44A135.645 135.645 0 0012 0C8.537 0 5.685.122 3.688.246zm11.064 6.922l-3.197-2.132A1 1 0 0010 5.868v4.263a1 1 0 001.555.832l3.197-2.131a1 1 0 000-1.664z" fill="#24374d"/></svg>