<svg xmlns="http://www.w3.org/2000/svg" viewBox="0 0 51.43 60"><title>o-icon--leaf</title><path d="M51.35,21.67V20.61l-1.08-.14a24.1,24.1,0,0,0-16.69,4.94,11.17,11.17,0,0,0-3.1,14.89l-3.16,3.26V27.86c2.37-1.51,7.12-5.36,7-12C34.08,7.53,27.34,1.07,27.05.79L26.21,0l-.85.79c-.29.27-7.15,6.79-7.35,15.1-.16,6.56,4.51,10.42,6.84,11.93V43.75l-3.51-3.47a11.13,11.13,0,0,0-3.47-14.23A23.84,23.84,0,0,0,1.28,21.11h-1L.1,22.2A24.73,24.73,0,0,0,5,39.05a11,11,0,0,0,8.91,4.75,11.5,11.5,0,0,0,5.83-1.62l5.12,5.07v11.5a1.24,1.24,0,1,0,2.47,0V47.13l5-5.2a11.51,11.51,0,0,0,5.17,1.25,11,11,0,0,0,8.92-4.75A24.89,24.89,0,0,0,51.35,21.67ZM19.45,38.41l-1.61-1.59V31.94a1.24,1.24,0,1,0-2.47,0v2.43l-1.5-1.48v-5a1.24,1.24,0,1,0-2.47,0v2.52L7.21,26.31a1.23,1.23,0,0,0-1.75,0,1.26,1.26,0,0,0,0,1.77L9.42,32h-2a1.25,1.25,0,0,0,0,2.5H12L13.48,36H11.35a1.25,1.25,0,0,0,0,2.5H16l1.88,1.85c-1.69.83-6.77,2.64-10.94-2.83a22.59,22.59,0,0,1-4.45-14A21.92,21.92,0,0,1,16.37,28C21.13,31.74,20.36,36.1,19.45,38.41Zm6.64-28.23a1.24,1.24,0,0,0-1.24,1.25V24.74a11,11,0,0,1-4.37-8.79c.14-5.62,4-10.5,5.72-12.44,1.72,1.93,5.47,6.78,5.61,12.4a11,11,0,0,1-4.48,8.88V11.43A1.24,1.24,0,0,0,26.09,10.18ZM44.49,36.9c-3.67,4.81-8,4-10.27,3.12l1.57-1.63h4.83a1.25,1.25,0,0,0,0-2.5H38.22l1.46-1.51h4.91a1.25,1.25,0,0,0,0-2.5H42.1l4.1-4.23a1.26,1.26,0,0,0,0-1.77,1.23,1.23,0,0,0-1.75,0l-3.86,4V27.83a1.24,1.24,0,1,0-2.47,0v4.62L36.6,34V31.84a1.24,1.24,0,1,0-2.47,0v4.7l-1.84,1.89c-.82-1.71-2.62-6.83,2.8-11a22.05,22.05,0,0,1,13.85-4.5A22.53,22.53,0,0,1,44.49,36.9Z" fill="#8d9b86"/></svg>