<svg xmlns="http://www.w3.org/2000/svg" viewBox="0 0 20 20"><path d="M19.67 6a7.14 7.14 0 00-.45-2.36 4.77 4.77 0 00-1.12-1.72A4.77 4.77 0 0016.37.78 7.14 7.14 0 0014 .33c-1 0-1.37-.06-4-.06s-3 0-4 .06a7.14 7.14 0 00-2.37.45 4.77 4.77 0 00-1.72 1.13A4.77 4.77 0 00.78 3.63 7.14 7.14 0 00.33 6c0 1-.06 1.37-.06 4s0 3 .06 4a7.14 7.14 0 00.45 2.36 4.77 4.77 0 001.12 1.72 4.77 4.77 0 001.72 1.12 7.14 7.14 0 002.38.47c1 0 1.37.06 4 .06s3 0 4-.06a7.14 7.14 0 002.36-.45 5 5 0 002.84-2.84 7.14 7.14 0 00.47-2.38c0-1 .06-1.37.06-4s-.01-3-.06-4zm-1.75 7.94a5.38 5.38 0 01-.33 1.81 3.22 3.22 0 01-1.85 1.85 5.38 5.38 0 01-1.81.33c-1 0-1.33.06-3.93.06s-2.91 0-3.93-.06a5.38 5.38 0 01-1.81-.33 3 3 0 01-1.12-.73 3 3 0 01-.73-1.12 5.38 5.38 0 01-.33-1.81C2 12.9 2 12.6 2 10s0-2.9.06-3.93a5.38 5.38 0 01.33-1.81 3 3 0 01.73-1.12 3 3 0 011.12-.73 5.38 5.38 0 011.81-.33C7.1 2 7.4 2 10 2s2.9 0 3.93.06a5.38 5.38 0 011.81.33 3 3 0 011.12.73 3 3 0 01.73 1.12 5.38 5.38 0 01.33 1.81C18 7.1 18 7.4 18 10s0 2.9-.08 3.93z" fill="#24374d"/><path d="M10 5a5 5 0 105 5 5 5 0 00-5-5zm0 8.24A3.24 3.24 0 1113.24 10 3.24 3.24 0 0110 13.24z" fill="#24374d"/><circle cx="15.19" cy="4.81" r="1.17" fill="#24374d"/></svg>