<svg xmlns="http://www.w3.org/2000/svg" viewBox="0 0 2476.03 73.66"><path d="M2476 0v40.75h-1c-1.94 0-4.28-1.55-5.84.39s-5.84 3.12-7 2.34-5.45-2-6.62-.78a7 7 0 01-5.45 1.56c-1.55-.39-2.73 3.11-4.28 3.11s-3.12.78-4.67-.39-1.17 0-3.51 1.17-4.29 1.56-5.84.39-3.5-2-5.45-1.17-6.62.39-8.18 1.56-3.5 1.56-4.28 3.12a3.27 3.27 0 01-5.46 0c-1.55-2.34-3.5-3.12-5.45-2.34s-3.89 2.34-6.23 1.17-5.74-1.88-7.74.41-4.28 2-6.23 2.34-3.89.38-5.84 1.16-6.23 2-6.23 2-2.73 3.89-3.89 4.68-4.29.77-4.68-.4-6.22-1.55-6.22-1.55-5.85 2-7.79 2.33-4.68 2.73-6.24 3.12a12.6 12.6 0 01-6.62 0c-2.72-.78-5.06.39-8.17.39s-5.45-.39-7 0-4.29-.39-2.73-1.56-1.95-2.33-1.95-2.33-1.16-2.74-2.33-1.18-2.34 2.73-4.68 2.73-4.28 0-5.84.78.39-2.33-1.55-2.33-2.73 0-3.9 2.33a5.56 5.56 0 01-3.89 2.73s-2.35-3.12-3.12-2-3.9 2.34-5.84 2.72-3.9-2.33-4.68-1.16a4.79 4.79 0 01-3.88 1.94c-1.57 0-6.24-.78-6.24-.78a19.16 19.16 0 00-5.06-1.16 13 13 0 00-5.85 1.55c-1.16.78-5.84 1.18-7 1.18s-6.62-1.18-7.78-1.18-5.47-1.94-7.41-2.33-3.12 0-5.84-1.17-3.9-.78-6.23-2-3.89.78-5.06-.39a2.61 2.61 0 00-3.9 0c-1.17 1.17-1.56 1.56-3.5.78a20.79 20.79 0 00-6.23-1.53h-6.22c-1.17 0-3.12-1.55-3.12-1.55a10.72 10.72 0 00-3.12 1.16c-1.16.79-2.33 1.57-3.5 0s-3.89-2.72-4.28-1.55-1.56 2.72-3.51 1.94-4.67.4-4.67.4-3.89.38-5.06-.4-4.29-2.34-5.46-1.55-5.45 3.89-5.45 3.89-5.45 1.56-6.23.39-1.56-1.56-2.33-2.73-2.34-.39-4.29-1.55a30.37 30.37 0 00-3.89-1.95 40.6 40.6 0 00-5.06.78 9 9 0 00-3.89 3.12 5.82 5.82 0 01-5.07 2.33c-2.34 0-5.84 1.17-8.18 1.17s-2.34-1.17-3.9-3.12-7-2.72-8.17-2.72-3.51-.4-5.46-.4-4.28 3.12-6.61 3.12-6.23-1.94-6.23-1.94-3.11.38-5.07.38-3.11-1.16-5.06-1.16-3.11-.78-4.67-1.17-3.51-1.17-5.45-.78-4.28 1.17-5.85 1.17-1.55-.39-4.27 0-3.9 2.33-4.29.78 1.17-.4-.4-1.56-4.27-1.17-5.44-1.17-4.28 1.95-5.45 2.73-3.12 1.94-4.29 1.94-2-2.34-3.5-1.94-3.89 3.11-6.23 2.34a30.31 30.31 0 00-6.63-1.56c-1.16 0-3.5 1.16-3.5-.39s-2.72-3.12-2.72-3.12c-1.56.39-2.72 0-4.68.39s-5.84-.78-7-.78h-5.07c-1.17 0-3.89-.39-5.06 0s-2.73 2.34-3.89 2.34h-3.51c-1.16 0-3.11-.78-4.67 0s-3.12 3.12-5.06 2.72-.78-1.16-.78-2.34-.39-1.94-1.95-1.94-3.12.78-7 0-5.07-.39-7 .39-6.23.78-6.23.78-4.67-.78-5.84-.78-3.89 1.95-7 1.95-10.13.78-12.07 1.55-3.12 2.34-6.23 1.95-5.85-1.56-7-.38-4.67 1.94-5.83 2.33a17.83 17.83 0 01-3.89.39 2.69 2.69 0 01-1.18-2c0-1.17-1.16-2.34-2.33-1.55s-4.29 2.33-4.29 2.33-3.11 2.34-3.11.78 2.34-2.73 1.55-3.9-4.67-2.33-7-1.16-7.4 1.16-7.4 1.16a46.38 46.38 0 00-5.45.39c-2.73.4-7 .4-8.18-.39s-4.68-.77-4.68-.77-4.67-1.18-6.23-1.56a50.46 50.46 0 00-8.56-1.17c-2.34 0-7 .78-8.18 1.55s-7.39 0-9.73 0h-5.84c-1.17 0-6.63-.77-8.18.4s-5.07 3.12-7 2.72a49.53 49.53 0 00-7-.78c-1.55 0-6.62-.39-9.35.4s-2.72.38-7 .78-5.06 1.55-7 .38-3.12-1.56-4.28-2.34-2.73 0-5.45-.77-3.51-1.95-5.84-2.34a34.11 34.11 0 00-7.79-.78c-4.29 0-8.18 0-10.13-1.17a14.48 14.48 0 00-6.23-1.55c-1.17 0-6.23 3.89-6.23 3.89s-5.06-.39-6.23-1.17 2.34-3.11-.78-3.89-5.84-.39-7 .39-5.46.78-5.46.78-4.67-1.56-7-1.17a82.42 82.42 0 01-8.17 1.17c-1.56 0-7 0-8.19.77s-6.61 1.56-6.61 1.56-5.46-.39-7.4-1.56-6.62-1.16-9.35-.39-5.06 4.67-7.4 3.51-5.84-3.12-7.78-3.12-7 .78-7.41-.77a17 17 0 01-.77-4.29c0-1.56-4.29-3.5-4.29-3.5s-4.67.78-6.22 2.33a24.71 24.71 0 01-7.79 5.07 9.46 9.46 0 01-7.41-.39c-1.94-.78-7 .78-8.56 2.33s-3.12.78-3.9-.78-5.45-1.94-6.62-1.94-6.23-.39-8.56 1.17-5.46 3.89-6.63 2.33-6.61-2.33-8.56-3.5-2.73-3.12-5.07-3.9-4.67-1.16-6.62-1.94-4.66-2.73-6.61-2.73a11.33 11.33 0 01-5.46-1.17c-1.16-.78-5.45-.78-6.61-1.56a18.6 18.6 0 00-7-1.94c-1.94 0-5.84.78-7.78-1.17a19.63 19.63 0 00-5.07-3.9c-1.56-.77-4.28 0-5.84-1.94s0-4.29-2.72-4.29-4.29.39-5.85-.39a10.72 10.72 0 00-5.06-1.16 10.68 10.68 0 01-4.67-.78c-2.33-.78-5.06-1.56-7-.78s-5.85-2.34-7.79-.78-8.18 5.84-9.73 3.89-2-3.89-3.9-5.06a11.72 11.72 0 00-6.23-1.95c-2.34 0-3.11 2.73-5.45 2.73s-6.62-1.95-7.79-.78-3.9 3.5-5.06 1.95-3.9-2.34-4.68-1.17-4.28 2.73-4.28.78-.78-3.9-2-4.29a15 15 0 00-4.67-.38c-2.34 0-6.23.77-7 1.94s-4.67 3.12-5.45 1.56-4.67-2.73-5.84-2.73-7 .39-7 .39-3.51-2.33-5.06-.78-5.46 2.73-7 2.34-5.06.78-7.79.78-5.84-2.34-7.4-1.17-4.68 4.67-5.84 3.12-3.89-2.34-5.45-1.56-7 2.72-8.57 2.34a14.59 14.59 0 00-7 .77c-1.56.78-5.45 1.17-6.62 0s-2.33-1.16-4.67-.38-6.23 2.72-7.4 1.55a5 5 0 00-4.67-1.55c-2 .38-7 .77-10.13 1.16s-4.28 2.34-6.62 2.34-5.06-.39-6.62 0-3.12 1.17-5.45.39-5.46-1.56-7-2-4.67 1.56-7 1.17-3.5-2.33-6.62-1.17-5.06-.38-7.79 0-3.9 3.9-7 2.34-6.24-2.34-7-3.5-6.23-2.73-7.39-2.34a47.5 47.5 0 00-6.63 2.72c-1.16.78-7.79-.38-10.51-.78a51.19 51.19 0 00-7-.38c-1.56 0-3.9.39-5.06-1.56s-5.06-1.56-6.23-1.17-3.51-3.51-3.51-3.51h-5.84c-1.17 0-3.5-3.89-4.28-1.94s-3.51 3.12-4.68 3.12a38.45 38.45 0 01-6.62-.79c-1.17-.39-3.89 1.95-5.45 2.34a13.14 13.14 0 00-4.67 2.34c-1.56 1.17-8.17 3.89-9.35 4.67s-2.33 2.34-5.84 3.89a82.14 82.14 0 01-9 3.51c-3.5 1.17-7 1.95-7-.78s-5.85 0-4.29-2.34.39-2.72.39-3.89-1.94-2.33-4.67-.78a5.83 5.83 0 01-5.45 0s-2.34-3.89-4.29-3.89-4.28 0-5.84 1.94-3.89 2.73-5.06 1.17-8.17-.39-9.73 0a18.9 18.9 0 01-6.63 0 21.47 21.47 0 00-7-.39c-2 .39-7 .78-7 .78a20.9 20.9 0 00-5.45-2.72c-2.73-.78-5.85-.78-8.57-1.95s-6.62-2-7.4 0-1.56 1.95-4.28 1.95-7.79 0-9 .38-4.67.4-6.23.4-4.29 3.11-5.84 1.55-2.34-1.55-4.68.39-4.28 2.73-5.45 1.17S1035 26 1033.85 26s-6.22 1.55-8.17 1.55-4.29.78-7 0-6.62-1.94-7.79-.78-2.72 4.68-5.06 4.68-7.4-.39-9-1.17-4.29-.39-6.23.78-.39 3.11-3.51 2.72-4.67-1.16-5.83.39-2.73 4.68-5.07 3.9-2.33-1.56-3.5-2.72-4.29-2.73-7-1.18-5.45 2.73-8.18 2-5.84-1.55-8.18-.77a16.27 16.27 0 00-5.84 3.11c-1.17 1.17-3.12.39-4.67-.78s-5.45-2.33-6.23-.39a5.54 5.54 0 01-5.07 3.5c-2.33 0-3.89 2.34-7 1.95a21 21 0 00-7.41.39c-1.55.39-2.72 1.56-4.28 3.12s-3.89 2.33-4.67 1.16-4.28-2.72-5.06-1.16a4.77 4.77 0 01-5.83 2.7c-3.5-.78-3.11-.39-4.67 1.56a6.59 6.59 0 01-5.06 2.34c-1.16 0-.39 3.11-4.28 3.11s-4.29.78-6.62-.78-3.12-1.55-6.23-1.55a9.63 9.63 0 01-6.62-3.12c-1.17-1.17-1.95-.39-5.85-.39s-7 3.12-9.73 2-5.84-1.56-11.29-2-4.29 0-8.18-1.17-5.45-3.11-7.79-2-5.84 2.34-7 1.56-7 0-9-.78-5.45-1.17-9.73-1.55-11.29-.78-12.46-2.34-4.29.78-7.4-1.56-5.84-1.95-7-3.5-3.12-1.56-4.28-3.12-3.12-1.16-5.46-.78-7.4-3.11-10.51-2-4.68 3.9-8.18 3.9-5.84-1.17-7.78 0S720.36 38 718.02 38s-6.23-3.12-8.18-1.17-3.84 3.94-5.84 3.55-7.4-1.16-8.57-.77a30.89 30.89 0 01-6.62.77c-2 0-3.5.78-6.62.78s-4.67-.78-8.18.78-5.45 2-7.78.78-9.35 0-10.13-3.11 1.17-5.07-2.72-4.29-5.84.78-6.62-.39-3.51-4.28-7.4-4.28-9-1.56-9-3.9-4.67-1.55-5.45-3.89-1.56-3.5-4.67-4.28a33.87 33.87 0 00-8.18-1.17c-2.34 0-3.9.38-6.23-.78s-3.51-3.51-6.62-3.12-6.62 2-9 1.17-5.45 0-7-.77-5.45 1.55-7.4 1.16-5.45 1.17-7.78 1.17a16.48 16.48 0 01-7-1.17c-3.11-1.16-5.45-3.11-7.39-3.89s-5.46-2.34-9.35-1.56-5.84 0-7.79-.39-7 0-10.12-.39S517.1 3 516.32 4.56s-.78 4.67-4.28 2.72-3.12-1.17-4.67.4-4.68.77-4.68.77-3.5 2.34-4.28.39a3.17 3.17 0 00-5.06-1.16c-1.56 1.55-3.12 1.16-4.68.39s-2.67-2.73-5.84-1.56-3.11 2.33-4.67.38-3.51-.39-7.79-.78-5.06-2.72-8.18.4-4.67 4.67-6.62 1.56-5.84-2-10.12-2-7 0-10.13 2a14.6 14.6 0 01-9.73 2.33c-3.51-.39-5.84-1.56-9-.39a35.3 35.3 0 01-10.12 2c-2.34 0-8.57-1.17-10.13 0s-7 6.23-7.79 3.11 2-5.45-1.17-6.23-7.39 0-9.73 0-5.45-.77-6.23 1.17-6.23 3.89-9 2a27.54 27.54 0 00-8.57-3.89c-2.72-.79-11.29-1.18-13.62-.39a48.36 48.36 0 00-9 4.67c-2.34 1.56-3.9.77-7.79 1.94s-9.35 3.12-10.9 1.17a7 7 0 00-7.4-2.73c-3.51.78-4.68 2.34-8.57 1.18s-5.84-2.73-7.4-2.73-5.84.78-10.51 0-5.85-.39-9-1.17-5.45.39-9 0-7.78-1.56-9.34-.78-5.84 4.28-9 4.28-3.5.4-5.06 1.17a19.34 19.34 0 01-6.23 1.17c-1.17 0-1.17 2.34-5.06 3.9s-3.51.77-7.4 1.55-9.35 5.07-10.51 5.07a25.83 25.83 0 01-6.63-.78c-3.11-.78-5.83 1.94-7.39 3.11s-9.35 3.9-11.3 3.9-8.57-.39-10.9-1.56-7.79.78-9.35 1.56-7.78.78-9.73.78-7.4-.4-8.57 0-3.5 0-6.23 1.94a7.55 7.55 0 01-7.4 1.17c-2.34-.78-5.06 2.73-7.79 0s-7.4-4.28-10.9-4.67-7.79 1.17-11.3-.39-3.89-2.34-7.39-1.56-5.18 2.63-9.11 1.46A22.77 22.77 0 0074 31c-2.34.39-6.24 1.17-8.57.39s-6.62-1.95-9-1.17a11.22 11.22 0 00-5.06 3.12c-1.56 1.55-3.5 4.28-6.23 3.89s-5.06-.78-6.23.39-3.12 3.11-6.23 3.11a10.36 10.36 0 00-6.23 2.34c-1.17.78-5.84 2-7.79 3.12s-3.12 1.94-8.18 1.94-5.45 0-7.79-1.94A7.57 7.57 0 001 45.09v28.57H0V0z" fill="#fff"/></svg>