<svg xmlns="http://www.w3.org/2000/svg" viewBox="0 0 26.71 21.12"><title>icon--chart</title><path d="M9.28,11.35a1,1,0,0,0-1,1v7.76a1,1,0,1,0,2,0V12.35A1,1,0,0,0,9.28,11.35Z" fill="#fdd370"/><path d="M13.87,7.86a1,1,0,0,0-1,1V20.12a1,1,0,0,0,2,0V8.86A1,1,0,0,0,13.87,7.86Z" fill="#fdd370"/><path d="M18.47,11.05a1,1,0,0,0-1,1v8.06a1,1,0,0,0,2,0V12.05A1,1,0,0,0,18.47,11.05Z" fill="#fdd370"/><path d="M23.06,7.33a1,1,0,0,0-1,1V20.12a1,1,0,1,0,2,0V8.33A1,1,0,0,0,23.06,7.33Z" fill="#fdd370"/><path d="M26.71,1a1,1,0,0,0-1-1H21.33a1,1,0,0,0,0,2h2.31L18.48,6.94,14.57,3.13a1,1,0,0,0-1.34,0L.35,14A1,1,0,0,0,1.65,15.5L13.82,5.19,17.77,9a1,1,0,0,0,1.39,0l5.55-5.3V5.86a1,1,0,1,0,2,0V1.41a1,1,0,0,0,0-.23A1,1,0,0,0,26.71,1Z" fill="#fdd370"/></svg>