<svg xmlns="http://www.w3.org/2000/svg" viewBox="0 0 19.72 18.73"><title>icon--admissions</title><path d="M15.15,14.52c0,1.26-1.33,2.32-2.9,2.32H4.84A2.88,2.88,0,0,1,1.94,14V6.75A2.88,2.88,0,0,1,4.84,3.9H12l1.51-1.74A4.9,4.9,0,0,0,12.24,2H4.84A4.79,4.79,0,0,0,0,6.75V14a4.79,4.79,0,0,0,4.84,4.74h7.4c2.67,0,4.84-1.89,4.84-4.21V7.76L15.15,10Z" fill="#fdd370"/><path d="M19.38.22A1,1,0,0,0,18,.33L8.43,11.39,6.09,9.1a1,1,0,0,0-1.37,0,.93.93,0,0,0,0,1.34l3.08,3a1,1,0,0,0,.68.28h0a1,1,0,0,0,.7-.33L19.49,1.56A.93.93,0,0,0,19.38.22Z" fill="#fdd370"/></svg>