<?xml version="1.0" encoding="UTF-8"?>
<svg width="19px" height="19px" viewBox="0 0 19 19" version="1.1" xmlns="http://www.w3.org/2000/svg" xmlns:xlink="http://www.w3.org/1999/xlink">
    <!-- Generator: Sketch 45.2 (43514) - http://www.bohemiancoding.com/sketch -->
    <title>Linkedin</title>
    <desc>Created with Sketch.</desc>
    <defs></defs>
    <g id="Symbols" stroke="none" stroke-width="1" fill="none" fill-rule="evenodd">
        <g id="Linkedin">
            <g id="facebook-dark-copy-2" fill="#929292">
                <path d="M13.0060871,19 L14.5506594,19 C17.0078955,19 19,17.0078955 19,14.5506594 L19,4.44850249 C19,1.99126638 17.0078955,0 14.5506594,0 L4.44766442,0 L4.44766442,0 C1.99126638,0 0,1.99126638 0,4.44850249 L0,14.5506594 C0,17.0078955 1.99126638,19 4.44766442,19 L9.44845838,19" id="Fill-1"></path>
            </g>
            <g transform="translate(3.000000, 3.000000)" id="Fill-1" fill="#FFFCF6">
                <path d="M13.5063642,13.3366113 L10.7091331,13.3366113 L10.7091331,9.00450061 C10.7091331,7.97095926 10.6899991,6.64225 9.25468827,6.64225 C7.79801551,6.64225 7.57496045,7.76769915 7.57496045,8.929704 L7.57496045,13.3366113 L4.77786043,13.3366113 L4.77786043,4.42829629 L7.46303975,4.42829629 L7.46303975,5.64539398 L7.50025928,5.64539398 C7.87376512,4.94513179 8.78682307,4.2066287 10.1486122,4.2066287 C12.9830628,4.2066287 13.5063642,6.05165493 13.5063642,8.450202 L13.5063642,13.3366113 Z M1.62337431,3.21055046 C0.726173977,3.21055046 0,2.49097338 0,1.60482153 C0,0.719317823 0.726173977,0 1.62337431,0 C2.51821566,0 3.24543807,0.719317823 3.24543807,1.60482153 C3.24543807,2.49097338 2.51821566,3.21055046 1.62337431,3.21055046 L1.62337431,3.21055046 Z M0.223186118,13.3366113 L3.02238301,13.3366113 L3.02238301,4.42829629 L0.223186118,4.42829629 L0.223186118,13.3366113 Z"></path>
            </g>
        </g>
    </g>
</svg>