<?xml version="1.0" encoding="UTF-8"?>
<svg width="14px" height="20px" viewBox="0 0 14 20" version="1.1" xmlns="http://www.w3.org/2000/svg" xmlns:xlink="http://www.w3.org/1999/xlink">
    <!-- Generator: Sketch 45.2 (43514) - http://www.bohemiancoding.com/sketch -->
    <title>Page 1</title>
    <desc>Created with Sketch.</desc>
    <defs>
        <polygon id="path-1" points="0.000102090176 19.6861071 13.6263944 19.6861071 13.6263944 3.57142857e-05 0.000102090176 3.57142857e-05"></polygon>
    </defs>
    <g id="Symbols" stroke="none" stroke-width="1" fill="none" fill-rule="evenodd">
        <g id="question">
            <g id="Page-1">
                <mask id="mask-2" fill="white">
                    <use xlink:href="#path-1"></use>
                </mask>
                <g id="Clip-2"></g>
                <path d="M6.47083889,14.8573571 C7.93306111,14.8573571 9.11528333,15.9430714 9.11528333,17.2859286 C9.11528333,18.6291429 7.93306111,19.6862857 6.47083889,19.6862857 C5.00861667,19.6862857 3.85750556,18.6291429 3.85750556,17.2859286 C3.85750556,15.9430714 5.00861667,14.8573571 6.47083889,14.8573571 L6.47083889,14.8573571 Z M4.47972778,13.1430714 C3.76417222,7.39985714 9.27083889,7.39985714 9.27083889,4.57128571 C9.27083889,3.82842857 8.92861667,2.74271429 6.75083889,2.74271429 C4.85306111,2.74271429 3.73306111,3.54271429 4.01306111,6.02842857 L0.124172222,5.54307143 C-0.653605556,1.77128571 2.30195,-0.000142857143 6.84417222,-0.000142857143 C11.1997278,-0.000142857143 13.6263944,1.71414286 13.6263944,4.45735714 C13.6263944,8.65735714 7.90195,8.45735714 8.30639444,13.1430714 L4.47972778,13.1430714 Z" id="Fill-1" fill="#FDD370" mask="url(#mask-2)"></path>
            </g>
        </g>
    </g>
</svg>