<?xml version="1.0" encoding="UTF-8"?>
<svg width="19px" height="22px" viewBox="0 0 19 22" version="1.1" xmlns="http://www.w3.org/2000/svg" xmlns:xlink="http://www.w3.org/1999/xlink">
    <!-- Generator: Sketch 45.2 (43514) - http://www.bohemiancoding.com/sketch -->
    <title>NEWS</title>
    <desc>Created with Sketch.</desc>
    <defs>
        <polygon id="path-1" points="0 21.401875 18.3648571 21.401875 18.3648571 -0.000458333333 0 -0.000458333333"></polygon>
    </defs>
    <g id="Symbols" stroke="none" stroke-width="1" fill="none" fill-rule="evenodd">
        <g id="NEWS">
            <path d="M14.0735714,0.916666667 L0.904761905,0.916666667 L0.904761905,20.4856667 L15.6605238,20.4856667 C16.6548571,20.4856667 17.4600952,19.6689167 17.4600952,18.6615 L17.4600952,9.61125 L14.0735714,9.61125 L14.0735714,0.916666667 Z" id="Stroke-1" stroke="#FDD370" stroke-width="2" stroke-linecap="round" stroke-linejoin="round"></path>
            <path d="M14.0735714,9.611525 L14.0735714,18.8771917 C14.0735714,19.7654417 14.7847143,20.485025 15.6605238,20.485025" id="Stroke-3" stroke="#FDD370" stroke-width="2" stroke-linecap="round" stroke-linejoin="round"></path>
            <mask id="mask-2" fill="white">
                <use xlink:href="#path-1"></use>
            </mask>
            <g id="Clip-6"></g>
            <polygon id="Fill-5" fill="#FDD370" mask="url(#mask-2)" points="8.16004762 9.61170833 11.643381 9.61170833 11.643381 3.55895833 8.16004762 3.55895833"></polygon>
            <path d="M4.0903381,4.55198333 L5.86367143,4.55198333" id="Stroke-7" stroke="#FDD370" stroke-width="2" stroke-linecap="round" stroke-linejoin="round" mask="url(#mask-2)"></path>
            <path d="M4.0903381,8.69036667 L5.86367143,8.69036667" id="Stroke-8" stroke="#FDD370" stroke-width="2" stroke-linecap="round" stroke-linejoin="round" mask="url(#mask-2)"></path>
            <path d="M4.0903381,12.8288417 L10.6860524,12.8288417" id="Stroke-9" stroke="#FDD370" stroke-width="2" stroke-linecap="round" stroke-linejoin="round" mask="url(#mask-2)"></path>
            <path d="M4.0903381,16.967225 L10.6860524,16.967225" id="Stroke-10" stroke="#FDD370" stroke-width="2" stroke-linecap="round" stroke-linejoin="round" mask="url(#mask-2)"></path>
        </g>
    </g>
</svg>