<svg xmlns="http://www.w3.org/2000/svg" viewBox="0 0 20.89 18"><title>icon--heart</title><path d="M14.68,0a6.23,6.23,0,0,0-4.23,1.66A6.21,6.21,0,0,0,0,6.22a7.6,7.6,0,0,0,1.72,4.5c2.07,3,7,6.52,7.59,6.92a2,2,0,0,0,2.29,0c.22-.16,5.45-3.85,7.58-6.92a7.59,7.59,0,0,0,1.72-4.5A6.23,6.23,0,0,0,14.68,0Zm2.86,9.57c-1.94,2.78-7,6.39-7.08,6.43-.21-.15-5.19-3.7-7.1-6.43A5.77,5.77,0,0,1,2,6.22,4.22,4.22,0,0,1,9.64,3.75a1,1,0,0,0,1.62,0,4.22,4.22,0,0,1,7.64,2.47A5.75,5.75,0,0,1,17.54,9.57Z" fill="#fdd370"/></svg>