<?xml version="1.0" encoding="utf-8"?>
<!-- Generator: Adobe Illustrator 21.1.0, SVG Export Plug-In . SVG Version: 6.00 Build 0)  -->
<svg version="1.1" id="Layer_1" xmlns="http://www.w3.org/2000/svg" xmlns:xlink="http://www.w3.org/1999/xlink" x="0px" y="0px"
	 viewBox="0 0 26 19.3" style="enable-background:new 0 0 26 19.3;" xml:space="preserve">
<style type="text/css">
	.st0{fill:#FDD370;}
</style>
<title>CONTACT</title>
<desc>Created with Sketch.</desc>
<path class="st0" d="M23.5,0h-21C1.1,0,0,1.1,0,2.5v13.8c0,1.7,1.3,3,3,3h20c1.7,0,3-1.3,3-3V2.5C26,1.1,24.9,0,23.5,0z M2.5,2h21
	c0.1,0,0.2,0,0.3,0.1L13,10.2L2.2,2.1C2.3,2,2.4,2,2.5,2z M24,16.3c0,0.6-0.4,1-1,1H3c-0.6,0-1-0.4-1-1V4.5l11,8.2l11-8.2V16.3z"/>
</svg>
