<?xml version="1.0" encoding="UTF-8"?>
<svg width="30px" height="26px" viewBox="0 0 30 26" version="1.1" xmlns="http://www.w3.org/2000/svg" xmlns:xlink="http://www.w3.org/1999/xlink">
    <!-- Generator: Sketch 45.2 (43514) - http://www.bohemiancoding.com/sketch -->
    <title>QUOTE</title>
    <desc>Created with Sketch.</desc>
    <defs></defs>
    <g id="Symbols" stroke="none" stroke-width="1" fill="none" fill-rule="evenodd">
        <g id="QUOTE" fill="#FFFFFF">
            <g id="Page-1" transform="translate(2.000000, 0.000000)">
                <path d="M11.3609,4.5057 C7.1199,6.9847 4.0799,9.3857 3.6009,14.5057 L5.6009,14.5057 C9.5209,14.5057 10.5609,16.6657 10.5609,18.9857 C10.5609,21.1457 8.8809,23.4657 5.9999,23.4657 C1.5209,23.4657 -0.0001,20.2657 -0.0001,15.4657 C-0.0001,8.5857 6.8809,4.7447 10.4009,2.7447 L11.3609,4.5057 Z M24.8809,4.5057 C20.6409,6.9847 17.6009,9.3857 17.1209,14.5057 L19.1209,14.5057 C23.0409,14.5057 24.0809,16.6657 24.0809,18.9857 C24.0809,21.1457 22.4009,23.4657 19.5209,23.4657 C15.0409,23.4657 13.5209,20.2657 13.5209,15.4657 C13.5209,8.5857 20.4009,4.7447 23.9209,2.7447 L24.8809,4.5057 Z" id="Fill-1"></path>
            </g>
        </g>
    </g>
</svg>