<svg xmlns="http://www.w3.org/2000/svg" viewBox="0 0 25.17 20.49"><title>icon--academics</title><path d="M24.17,0h-9.7a2.86,2.86,0,0,0-1.89.72A2.86,2.86,0,0,0,10.7,0H1A1,1,0,0,0,0,1V3.39H0v14.7a1,1,0,0,0,1,1H9.39a3.36,3.36,0,0,1,2.46,1.08l0,0a1,1,0,0,0,.25.18l.06,0h0a1,1,0,0,0,.36.07h0a1,1,0,0,0,.36-.07h0l.06,0a1,1,0,0,0,.25-.18l0,0a3.36,3.36,0,0,1,2.46-1.08h8.39a1,1,0,0,0,1-1V1h0A1,1,0,0,0,24.17,0ZM13.58,5.28V2.89A.89.89,0,0,1,14.47,2h8.7V13.36H15.78a5.35,5.35,0,0,0-2.2.47ZM2,2h8.7a.89.89,0,0,1,.89.89V5.27h0v8.56a5.35,5.35,0,0,0-2.2-.47H2ZM9.39,17.09H2V15.36H9.39a3.35,3.35,0,0,1,2.2.85v1.36A5.35,5.35,0,0,0,9.39,17.09Zm6.4,0a5.35,5.35,0,0,0-2.2.47V16.2a3.35,3.35,0,0,1,2.2-.85h7.39v1.73Z" fill="#fdd370"/><path d="M4.33,6.28H9.25a1,1,0,1,0,0-2H4.33a1,1,0,0,0,0,2Z" fill="#fdd370"/><path d="M10.25,9.53a1,1,0,0,0-1-1H4.33a1,1,0,1,0,0,2H9.25A1,1,0,0,0,10.25,9.53Z" fill="#fdd370"/><path d="M15.92,6.28h4.92a1,1,0,0,0,0-2H15.92a1,1,0,0,0,0,2Z" fill="#fdd370"/><path d="M20.84,10.53a1,1,0,1,0,0-2H15.92a1,1,0,1,0,0,2Z" fill="#fdd370"/></svg>