<?xml version="1.0" encoding="UTF-8"?>
<svg width="577px" height="563px" viewBox="0 0 577 563" version="1.1" xmlns="http://www.w3.org/2000/svg" xmlns:xlink="http://www.w3.org/1999/xlink">
    <!-- Generator: Sketch 45.2 (43514) - http://www.bohemiancoding.com/sketch -->
    <title>Page 1</title>
    <desc>Created with Sketch.</desc>
    <defs>
        <polygon id="path-1" points="182.979293 0.0221580126 182.979293 349.73944 0.262479369 349.73944 0.262479369 0.0221580126 182.979293 0.0221580126"></polygon>
    </defs>
    <g id="Symbols" stroke="none" stroke-width="1" fill="none" fill-rule="evenodd">
        <g id="mark" transform="translate(-1.000000, 0.000000)">
            <g id="Page-1" transform="translate(1.000000, 0.000000)">
                <g id="Group-3" transform="translate(393.745914, 14.537967)">
                    <mask id="mask-2" fill="white">
                        <use xlink:href="#path-1"></use>
                    </mask>
                    <g id="Clip-2"></g>
                    <path d="M182.192517,58.5056106 C182.215028,57.9651306 181.438383,57.6048106 181.15699,58.0664706 C175.349033,67.8176306 161.076767,79.8095306 141.705655,83.8293506 C143.394014,70.0133306 143.551595,61.6021106 143.551595,61.6021106 C169.799958,50.0380906 183.621995,33.8574706 182.957907,0.910710604 C182.935395,0.201330604 182.170006,-0.215289396 181.573452,0.167550604 C175.630426,4.1198106 159.894915,10.8758106 141.176635,13.9160106 C114.51181,17.8344906 87.2504312,3.3766506 61.3622514,12.4972506 C60.0228195,12.9701706 59.3924986,14.5015306 59.9777965,15.7851706 C62.9943323,22.4623506 72.4941687,58.0664706 66.3710514,96.2153506 C59.0660824,141.784571 32.1198638,160.622551 25.9742351,170.317411 C25.2201011,171.499711 25.1975897,172.186571 25.5127501,173.233751 C32.0523295,197.499051 31.9960508,220.672131 29.6886261,239.881691 C24.4659672,283.412851 4.91476351,307.914611 1.98827361,317.418051 C-4.56256147,338.710711 9.1356624,352.087591 16.373097,349.396451 C16.3956085,349.385191 12.8387977,347.718711 10.5763959,342.843131 C8.79799049,338.980951 8.26897116,333.958991 9.1356624,328.858211 C14.538413,296.598311 71.8075692,302.205791 104.10026,267.322311 C119.194194,251.006571 130.675039,222.102151 126.904369,224.782031 C123.955368,226.865131 96.6714776,243.710091 75.3418685,245.601771 C87.4642901,231.538031 92.7094605,222.271051 97.8533293,215.346151 C163.28289,192.826151 168.516805,138.890751 166.434494,140.906291 C157.013448,150.038151 137.642336,157.188251 123.640208,160.442391 C126.577953,152.233851 129.087981,144.205471 131.22657,136.503631 C155.516436,126.257031 180.177741,110.842091 182.192517,58.5056106" id="Fill-1" fill="#001D34" mask="url(#mask-2)"></path>
                </g>
                <g id="Group-6" fill="#001D34">
                    <path d="M344.357815,30.521356 C343.524891,29.789456 343.457357,28.483296 344.188979,27.661316 C349.366615,21.896196 358.236131,21.389496 364.044088,26.546576 C364.843245,27.278476 364.910779,28.505816 364.201668,29.316536 C359.046543,35.115436 350.177028,35.644656 344.357815,30.521356 M489.83813,351.701596 C497.075565,339.225516 491.931696,327.537636 482.949623,322.571976 C474.057596,317.628836 461.698804,319.880836 454.934111,331.489896 C445.535576,326.726916 433.615757,330.026096 428.235518,339.720956 C422.934069,349.280696 426.535903,361.621656 436.27211,367.251656 C439.086042,368.884356 441.348444,370.291856 444.162377,371.924556 L436.846152,384.501976 C437.048755,384.817256 443.340708,394.095496 443.340708,394.095496 L434.054731,411.300776 C432.073722,409.296496 436.564759,397.259556 436.564759,397.259556 C430.081458,389.343776 430.475408,384.479456 421.088129,384.963636 C411.824663,385.447816 406.095496,395.683156 404.699786,403.238616 C404.68853,403.283656 358.067295,403.272396 358.011016,403.272396 C358.011016,403.272396 358.089806,394.016676 358.517524,386.168456 C361.173876,388.409196 367.488341,390.368436 371.878076,390.931436 C371.878076,390.942696 371.934355,390.942696 372.013145,390.953956 C377.438407,391.607036 380.950195,389.636536 382.49223,388.420456 C382.80739,388.183996 382.582276,387.688556 382.199581,387.733596 C370.448598,389.219916 362.61461,380.752396 362.445774,368.805536 C362.051823,340.576716 406.106752,314.262096 411.239365,246.690836 C417.970292,158.288576 357.189348,111.728476 357.324417,76.191916 C356.907955,63.209136 364.798222,53.840816 375.288562,50.890696 C389.943523,46.758276 400.557677,53.503016 396.336778,62.375896 C397.327282,61.948016 400.174982,60.709416 400.782792,60.371616 C409.641051,55.608636 413.164095,48.841376 413.085305,42.040336 C412.803912,16.547696 373.059928,18.090316 372.069423,18.281736 C368.366288,12.145036 366.756719,10.095716 359.778166,9.420116 C342.905826,7.787416 331.63884,15.027596 315.273008,17.606136 C280.807962,23.022196 265.027428,8.676956 264.712267,0.367076 C264.689756,-0.015764 264.183248,-0.139624 263.9919,0.198176 C254.109369,17.729996 276.328181,38.583516 293.763307,40.081096 C293.785819,40.114876 293.797074,40.126136 293.80833,40.137396 C269.068235,109.307576 305.154106,135.937476 305.840706,193.566156 C305.840706,193.633716 305.795683,193.622456 305.739404,193.599936 C278.039052,185.481476 213.318602,129.181476 237.10196,30.048436 C237.405865,28.832356 236.888102,27.537456 235.649971,27.188396 C180.969633,11.469436 139.435988,45.215656 79.0489945,46.690716 C52.9807229,47.343796 14.0133843,43.346496 4.1871317,19.677976 C3.93950563,19.081196 3.24165035,19.250096 3.06155866,19.903176 C-1.75589394,36.556716 0.0675343823,50.992036 2.08231012,59.786096 C12.2124675,103.959076 65.7447212,109.442696 111.555544,104.916176 C111.555544,104.916176 112.129586,110.985316 114.12185,120.950416 C77.3381234,128.776116 24.9877214,129.789516 9.80374116,111.582096 C9.38727914,111.075396 8.81323689,111.233036 8.74570251,111.739736 C7.40627059,121.558456 7.62012947,130.284956 9.16216453,137.998056 C18.7520468,186.123296 79.9156857,194.478216 132.68255,178.545316 C134.742348,183.071836 137.00475,187.665916 139.469755,192.282516 C76.437665,217.313496 44.9553871,201.921076 42.8055426,200.187036 C42.3215462,199.792936 41.8488056,200.040656 41.8375498,200.558616 C41.5561566,218.619656 50.9209242,231.872676 60.2969476,240.880676 C84.0127716,263.704696 132.119763,259.403376 171.638633,237.401336 C174.722703,240.644216 177.941842,243.808276 181.341072,246.893516 C158.953424,268.253736 130.082476,275.752896 110.621318,276.980236 C110.204856,277.002756 109.945974,277.453156 110.126066,277.824736 C117.228432,293.003216 127.83133,304.781176 146.02059,306.436396 C167.66536,308.406896 196.401239,296.437516 218.057265,272.543796 C222.548301,274.885876 227.230685,277.070316 232.104416,279.097116 C217.314386,309.296436 187.891907,328.359616 181.16098,329.192856 C180.812053,329.237896 180.620705,329.631996 180.812053,329.936016 C186.732567,339.236776 199.64289,344.416376 210.966155,345.137016 C235.391089,346.702156 261.774521,326.918336 277.926495,291.640756 C282.046092,292.271316 290.600447,292.800536 294.922647,293.205896 C291.579696,331.152096 271.904679,358.468856 251.059066,376.338476 C225.519814,398.227916 191.696344,405.929756 161.508475,401.617176 C142.294943,393.059576 148.508107,372.566376 161.159548,372.859136 C168.126845,373.028036 172.561602,380.144356 172.572858,387.001696 C172.572858,387.846196 172.865507,388.352896 173.743454,387.632256 C183.220779,379.705216 177.165196,360.169116 160.540482,360.191636 C142.204898,360.225416 131.534465,381.788316 145.277712,398.070276 C123.711733,391.674596 108.167569,379.919156 96.6529568,367.285436 C87.7721855,357.523016 82.5382709,349.460856 79.7581055,340.993336 C71.6652353,316.300156 96.0901703,314.858876 101.256551,326.524236 C101.740547,327.605196 101.78557,328.494736 102.168265,328.517256 C103.473929,328.607336 107.03074,320.961796 103.732811,315.298016 C101.886871,312.133956 98.7465226,309.746836 94.390555,308.181696 C93.5238637,307.877676 93.1524246,306.830496 93.6701882,306.076076 C96.3490521,302.146336 99.2417748,294.444496 98.0711788,279.862796 C97.9473658,278.410256 97.6772282,278.016156 96.1689604,278.410256 L95.4035707,278.545376 C81.0525145,281.371636 74.4003778,285.211296 71.3388192,288.848276 C70.7422654,289.546396 69.6392039,289.490096 69.1214403,288.746936 C66.4538322,284.952316 63.3134834,283.522296 59.7566726,282.587716 C53.6560667,280.977536 48.7035454,285.256336 48.5121979,285.413976 C47.2853233,286.359816 46.8463498,287.057936 47.0602087,287.542116 C47.2740676,288.026296 47.9944343,288.037556 49.3563777,288.082596 C54.1288074,288.217716 63.2684605,293.059516 62.1541432,306.706636 C59.2501647,354.708016 104.768338,403.103496 150.117676,421.524856 C141.293183,425.612236 138.591808,433.246516 140.111332,439.991256 C143.251681,453.964916 157.974176,452.163316 161.350895,448.199796 C162.161308,447.242696 162.408934,446.848596 160.630528,446.949936 C144.962552,447.974596 142.711405,427.503916 155.137732,423.439056 C182.072695,432.976276 216.380161,434.136056 250.957765,426.580596 C255.932797,436.084036 251.239158,449.303276 238.722786,450.102736 C238.283812,450.136516 238.148743,450.699516 238.542694,450.902196 C240.444912,451.893076 244.632044,453.289316 250.327444,451.465196 C250.41749,451.431416 250.473768,451.420156 250.462512,451.408896 C263.654228,447.062536 266.344348,432.120516 266.344348,433.460456 L266.344348,486.506316 C266.344348,488.352956 264.464641,489.602816 262.765026,488.870916 C255.865263,485.898276 250.440001,483.477376 246.095289,481.495616 C182.117718,452.388516 195.63585,527.785476 226.645387,519.137796 C227.028082,519.025196 227.433288,518.811256 227.680914,518.495976 C228.041098,518.045576 227.433288,517.932976 226.915524,517.775336 C221.467751,516.142636 217.539501,509.938376 219.723113,504.443496 C224.112848,493.341136 234.772024,500.187216 265.117473,513.248816 C278.579327,528.753836 284.308494,535.464796 286.750987,538.865316 C293.80833,548.684036 279.142113,556.791236 272.726347,547.400396 C272.602534,547.231496 272.366164,546.724796 272.073515,546.848656 C271.76961,546.961256 271.713331,547.659376 271.679564,547.974656 C271.184312,554.550496 279.491041,560.563336 285.02886,562.218556 C297.635278,565.979396 315.171706,555.901696 309.701421,537.874436 C308.350734,533.437996 302.182594,526.366716 290.96063,513.519056 C290.093939,512.528176 290.814306,510.963036 292.131226,510.996816 C321.362358,511.571076 323.894897,510.963036 326.877666,513.338896 C328.205842,514.397336 329.263881,515.771056 329.849179,517.369976 C332.674367,525.173156 325.268097,531.242296 318.492147,530.397796 C317.963128,530.341496 317.366574,530.183856 317.512898,530.746856 C317.6142,531.140956 317.92936,531.456236 318.199498,531.737736 C323.523458,537.210096 335.094349,534.597776 340.767237,531.039616 C352.934682,523.427856 358.900219,500.277296 338.516091,490.987796 C333.169619,488.555636 322.70179,489.174936 312.875537,489.557776 C290.679237,490.391016 287.099915,491.888596 287.099915,487.238216 L287.099915,435.712456 C287.167449,435.701196 287.144938,435.701196 287.212472,435.701196 C290.138962,447.794436 304.107323,457.928436 315.047893,452.061976 C315.318031,451.904336 315.318031,451.453936 315.059149,451.397636 C305.165362,449.269496 298.81713,441.747816 298.389412,431.534996 C298.006718,422.842276 300.685581,414.284676 304.726389,406.008576 C311.76122,401.786076 319.111212,396.043476 326.157299,389.557716 C326.821387,396.854196 323.208298,404.465956 314.879057,406.560316 C314.462595,406.672916 314.440084,407.269696 314.84529,407.393556 C316.905089,408.001596 321.272312,408.620896 326.539994,405.783376 C326.618784,405.738336 326.675063,405.704556 326.675063,405.704556 C332.573066,402.472936 334.64412,397.225776 336.219922,392.845636 C335.623368,407.945296 335.015559,416.187616 333.788684,420.522716 C333.214642,422.515736 334.767933,424.452456 336.827732,424.362376 C349.951913,423.720556 386.488014,423.900716 398.092672,423.957016 C398.52039,427.706596 399.612196,431.895316 405.712802,437.998236 L398.4416,450.485576 L373.228764,435.802536 L363.334977,452.805136 C363.334977,452.805136 367.094391,454.978316 367.094391,454.989576 L374.185501,459.358456 L370.437343,465.799176 L359.305425,459.313416 L349.411638,476.316016 L367.105646,486.630176 L367.105646,486.776556 L374.737032,491.224256 L367.634666,503.407576 L383.640314,512.730856 L418.161639,454.347756 C420.108881,455.485016 423.418065,457.050156 426.783529,458.119856 C432.051211,459.797596 436.317132,459.482316 440.301661,455.023356 C442.59783,452.478596 444.229911,448.582636 442.147601,445.880236 L442.338948,445.981576 C446.829985,448.582636 451.253487,444.866836 454.033652,440.340316 C456.712516,435.960176 458.378364,428.472276 453.932351,425.904996 L453.268262,425.522156 C457.399115,426.760756 460.359373,423.416536 462.689309,418.811196 C466.358677,411.616056 463.150794,406.594096 460.201792,404.893836 C458.423387,403.621456 454.754019,402.045056 449.598894,399.398956 L460.190537,381.202796 C460.269327,381.236576 467.844433,385.537896 467.934479,385.594196 C477.749476,391.269236 490.243337,388.183996 495.859946,378.826936 C501.476556,369.447356 498.583833,357.568056 489.83813,351.701596" id="Fill-4"></path>
                </g>
            </g>
        </g>
    </g>
</svg>